<svg width="88" height="18" viewBox="0 0 88 18" fill="none" xmlns="http://www.w3.org/2000/svg">
<g clip-path="url(#clip0_6392_7023)">
<path d="M29.4972 0H6.27043L3.50096 3.27075H5.1312L0 18H23.2268L25.4837 11.5208H18.3167L17.199 14.7293H8.30698L9.42467 11.5208L6.4341 9.8175H17.222L18.3619 6.54675H11.1576L11.7053 4.974L8.71472 3.27075H21.1903L20.5973 4.974H27.7643L29.4972 0Z" fill="#151515"/>
<path d="M86.2678 4.974L87.9999 0H64.7738L62.0044 3.27075H63.6346L58.5027 18H81.7295L83.9871 11.5208H76.8194L75.7017 14.7293H66.8097L70.208 4.974L67.2181 3.27075H79.6937L79.1 4.974H86.2678Z" fill="#151515"/>
<path d="M54.8115 0L50.2683 13.041L53.2394 14.733H45.6919L50.8246 0H43.6576L39.0863 13.0358L42.0661 14.733H34.5186L39.6706 0H32.5029L29.7334 3.27075H31.3636L26.2324 18H34.2329L42.1099 14.7293L48.5411 18H55.4971L61.7682 0H54.8115Z" fill="#151515"/>
</g>
<defs>
<clipPath id="clip0_6392_7023">
<rect width="88" height="18" fill="white"/>
</clipPath>
</defs>
</svg>
